<svg viewBox="0 0 48 48" width="48px" height="48px" xmlns="http://www.w3.org/2000/svg">
  <ellipse fill="#fe3e17" cx="23.923634" cy="23.9659" rx="21.713991" ry="21.598898" />
  <ellipse fill="#ffffff" cx="24.198378" cy="25.233938" rx="14.645827" ry="10.651511" />
  <circle fill="#fe3e17" cx="19.143213" cy="23.447077" r="2.3462017" />
  <circle fill="#fe3e17" cx="29.310087" cy="23.447201" r="2.3462017" />
  <ellipse fill="#ffffff" cx="11.402242" cy="20.204233" rx="3.7509339" ry="3.7061021" />
  <ellipse fill="#ffffff" cx="37.110836" cy="20.204102" rx="3.7509339" ry="3.7061021" />
  <ellipse fill="#ffffff" cx="35.2528" cy="9.9227896" rx="2.8841844" ry="2.958904" />
  <rect fill="#ffffff" width="1.8386538" height="8.4535809" x="27.288576" y="-1.4810719" ry="0.80309016" transform="rotate(18.186006)" />
  <rect fill="#ffffff" width="1.8386538" height="8.4535809" x="1.1168005" y="-35.761044" ry="0.80309016" transform="rotate(102.78646)" />
  <path fill="#fe3e17" d="m 19.253029,28.66116 c -0.232473,0.08806 -0.69742,0.264175 -0.841834,0.52483 -0.144413,0.260656 0.0317,0.605837 0.433251,1.014432 0.401552,0.408594 1.028513,0.880576 1.831613,1.197587 0.8031,0.317011 1.782287,0.479034 2.617085,0.563569 0.834798,0.08453 1.52516,0.09158 2.448021,-0.05636 0.92286,-0.147941 2.07816,-0.450855 2.838986,-0.827748 0.760825,-0.376893 1.12714,-0.827742 1.306779,-1.201111 0.17964,-0.373369 0.172596,-0.669239 -0.04931,-0.898192 -0.22191,-0.228952 -0.65867,-0.390976 -1.010905,-0.338139 -0.352235,0.05284 -0.619926,0.320529 -1.091924,0.602318 -0.471999,0.281789 -1.148272,0.577659 -1.789341,0.750253 -0.64107,0.172595 -1.246897,0.221906 -1.866833,0.193727 -0.619936,-0.02818 -1.253941,-0.133848 -1.951369,-0.334623 -0.697428,-0.200776 -1.458235,-0.496645 -1.909094,-0.725598 -0.45086,-0.228953 -0.59175,-0.390977 -0.662197,-0.471991 -0.07045,-0.08101 -0.07045,-0.08101 -0.302924,0.007 z" />
  <path fill="#fe3e17" d="m 19.253029,28.66116 c -0.232473,0.08806 -0.69742,0.264175 -0.841834,0.52483 -0.144413,0.260656 0.0317,0.605837 0.433251,1.014432 0.401552,0.408594 1.028513,0.880576 1.831613,1.197587 0.8031,0.317011 1.782287,0.479034 2.617085,0.563569 0.834798,0.08453 1.52516,0.09158 2.448021,-0.05636 0.92286,-0.147941 2.07816,-0.450855 2.838986,-0.827748 0.760825,-0.376893 1.12714,-0.827742 1.306779,-1.201111 0.17964,-0.373369 0.172596,-0.669239 -0.04931,-0.898192 -0.22191,-0.228952 -0.65867,-0.390976 -1.010905,-0.338139 -0.352235,0.05284 -0.619926,0.320529 -1.091924,0.602318 -0.471999,0.281789 -1.148272,0.577659 -1.789341,0.750253 -0.64107,0.172595 -1.246897,0.221906 -1.866833,0.193727 -0.619936,-0.02818 -1.253941,-0.133848 -1.951369,-0.334623 -0.697428,-0.200776 -1.458235,-0.496645 -1.909094,-0.725598 -0.45086,-0.228953 -0.59175,-0.390977 -0.662197,-0.471991 -0.07045,-0.08101 -0.07045,-0.08101 -0.302924,0.007 z" transform="matrix(-0.99997027,0,0,1,48.373705,0)" />
</svg>
