<?xml version="1.0" encoding="UTF-8" standalone="no"?>
<svg
   viewBox="0 0 48 48"
   width="48px"
   height="48px"
   version="1.1"
   id="svg5"
   sodipodi:docname="reddit1.svg"
   xml:space="preserve"
   inkscape:version="1.4.2 (ebf0e940d0, 2025-05-08)"
   xmlns:inkscape="http://www.inkscape.org/namespaces/inkscape"
   xmlns:sodipodi="http://sodipodi.sourceforge.net/DTD/sodipodi-0.dtd"
   xmlns="http://www.w3.org/2000/svg"
   xmlns:svg="http://www.w3.org/2000/svg"><defs
     id="defs5"><inkscape:path-effect
       effect="bspline"
       id="path-effect1"
       is_visible="true"
       lpeversion="1.3"
       weight="33.333333"
       steps="2"
       helper_size="0"
       apply_no_weight="true"
       apply_with_weight="true"
       only_selected="false"
       uniform="false" /><inkscape:path-effect
       effect="bspline"
       id="path-effect1-6"
       is_visible="true"
       lpeversion="1.3"
       weight="33.333333"
       steps="2"
       helper_size="0"
       apply_no_weight="true"
       apply_with_weight="true"
       only_selected="false"
       uniform="false" /></defs><sodipodi:namedview
     id="namedview5"
     pagecolor="#ffffff"
     bordercolor="#000000"
     borderopacity="0.25"
     inkscape:showpageshadow="2"
     inkscape:pageopacity="0.0"
     inkscape:pagecheckerboard="0"
     inkscape:deskcolor="#d1d1d1"
     showgrid="false"
     inkscape:zoom="11.829307"
     inkscape:cx="10.609244"
     inkscape:cy="21.937042"
     inkscape:window-width="1920"
     inkscape:window-height="1017"
     inkscape:window-x="0"
     inkscape:window-y="0"
     inkscape:window-maximized="1"
     inkscape:current-layer="svg5" /><ellipse
     style="display:inline;fill:#fe3e17;fill-opacity:1;stroke-width:0.907638"
     id="path5"
     cx="23.923634"
     cy="23.9659"
     rx="21.713991"
     ry="21.598898" /><ellipse
     style="display:inline;fill:#ffffff;fill-opacity:1;stroke-width:1.0344"
     id="path7"
     cx="24.198378"
     cy="25.233938"
     rx="14.645827"
     ry="10.651511" /><circle
     style="display:inline;fill:#fe3e17;fill-opacity:1;stroke-width:0.934673"
     id="path6"
     cx="19.143213"
     cy="23.447077"
     r="2.3462017" /><circle
     style="display:inline;fill:#fe3e17;fill-opacity:1;stroke-width:0.934673"
     id="path6-6"
     cx="29.310087"
     cy="23.447201"
     r="2.3462017" /><ellipse
     style="display:inline;fill:#ffffff;fill-opacity:1;stroke-width:1.04987"
     id="path8"
     cx="11.402242"
     cy="20.204233"
     rx="3.7509339"
     ry="3.7061021" /><ellipse
     style="display:inline;fill:#ffffff;fill-opacity:1;stroke-width:1.04987"
     id="path8-5"
     cx="37.110836"
     cy="20.204102"
     rx="3.7509339"
     ry="3.7061021" /><ellipse
     style="display:inline;fill:#ffffff;fill-opacity:1"
     id="path9"
     cx="35.2528"
     cy="9.9227896"
     rx="2.8841844"
     ry="2.958904" /><rect
     style="display:inline;fill:#ffffff;fill-opacity:1"
     id="rect10"
     width="1.8386538"
     height="8.4535809"
     x="27.288576"
     y="-1.4810719"
     ry="0.80309016"
     transform="rotate(18.186006)" /><rect
     style="display:inline;fill:#ffffff;fill-opacity:1"
     id="rect10-5"
     width="1.8386538"
     height="8.4535809"
     x="1.1168005"
     y="-35.761044"
     ry="0.80309016"
     transform="rotate(102.78646)" /><path
     style="fill:#fe3e17"
     d="m 19.253029,28.66116 c -0.232473,0.08806 -0.69742,0.264175 -0.841834,0.52483 -0.144413,0.260656 0.0317,0.605837 0.433251,1.014432 0.401552,0.408594 1.028513,0.880576 1.831613,1.197587 0.8031,0.317011 1.782287,0.479034 2.617085,0.563569 0.834798,0.08453 1.52516,0.09158 2.448021,-0.05636 0.92286,-0.147941 2.07816,-0.450855 2.838986,-0.827748 0.760825,-0.376893 1.12714,-0.827742 1.306779,-1.201111 0.17964,-0.373369 0.172596,-0.669239 -0.04931,-0.898192 -0.22191,-0.228952 -0.65867,-0.390976 -1.010905,-0.338139 -0.352235,0.05284 -0.619926,0.320529 -1.091924,0.602318 -0.471999,0.281789 -1.148272,0.577659 -1.789341,0.750253 -0.64107,0.172595 -1.246897,0.221906 -1.866833,0.193727 -0.619936,-0.02818 -1.253941,-0.133848 -1.951369,-0.334623 -0.697428,-0.200776 -1.458235,-0.496645 -1.909094,-0.725598 -0.45086,-0.228953 -0.59175,-0.390977 -0.662197,-0.471991 -0.07045,-0.08101 -0.07045,-0.08101 -0.302924,0.007 z"
     id="path1"
     inkscape:path-effect="#path-effect1"
     inkscape:original-d="m 19.485503,28.573102 c -0.464947,0.176117 -0.929894,0.352233 -1.394841,0.528349 0.17612,0.345195 0.352233,0.690376 0.528349,1.035564 0.626987,0.472001 1.253948,0.943983 1.880922,1.415975 0.979226,0.16203 1.958413,0.324053 2.937619,0.48608 0.69039,0.007 1.380752,0.01409 2.071127,0.02113 1.155346,-0.302926 2.310646,-0.60584 3.465968,-0.90876 0.36633,-0.450866 0.732644,-0.901715 1.098966,-1.352572 -0.007,-0.295882 -0.01409,-0.591751 -0.02113,-0.887626 -0.436777,-0.162031 -0.873537,-0.324054 -1.310305,-0.486081 -0.267702,0.267702 -0.535393,0.535393 -0.80309,0.80309 -0.6763,0.295881 -1.352573,0.591751 -2.028859,0.887626 -0.605853,0.04931 -1.21168,0.09862 -1.81752,0.147938 -0.634032,-0.105672 -1.268037,-0.21134 -1.902056,-0.31701 -0.760837,-0.295881 -1.521644,-0.59175 -2.282467,-0.887626 -0.140896,-0.16203 -0.281786,-0.324054 -0.422679,-0.486081 z" /><path
     style="fill:#fe3e17"
     d="m 19.253029,28.66116 c -0.232473,0.08806 -0.69742,0.264175 -0.841834,0.52483 -0.144413,0.260656 0.0317,0.605837 0.433251,1.014432 0.401552,0.408594 1.028513,0.880576 1.831613,1.197587 0.8031,0.317011 1.782287,0.479034 2.617085,0.563569 0.834798,0.08453 1.52516,0.09158 2.448021,-0.05636 0.92286,-0.147941 2.07816,-0.450855 2.838986,-0.827748 0.760825,-0.376893 1.12714,-0.827742 1.306779,-1.201111 0.17964,-0.373369 0.172596,-0.669239 -0.04931,-0.898192 -0.22191,-0.228952 -0.65867,-0.390976 -1.010905,-0.338139 -0.352235,0.05284 -0.619926,0.320529 -1.091924,0.602318 -0.471999,0.281789 -1.148272,0.577659 -1.789341,0.750253 -0.64107,0.172595 -1.246897,0.221906 -1.866833,0.193727 -0.619936,-0.02818 -1.253941,-0.133848 -1.951369,-0.334623 -0.697428,-0.200776 -1.458235,-0.496645 -1.909094,-0.725598 -0.45086,-0.228953 -0.59175,-0.390977 -0.662197,-0.471991 -0.07045,-0.08101 -0.07045,-0.08101 -0.302924,0.007 z"
     id="path1-9"
     inkscape:path-effect="#path-effect1-6"
     inkscape:original-d="m 19.485503,28.573102 c -0.464947,0.176117 -0.929894,0.352233 -1.394841,0.528349 0.17612,0.345195 0.352233,0.690376 0.528349,1.035564 0.626987,0.472001 1.253948,0.943983 1.880922,1.415975 0.979226,0.16203 1.958413,0.324053 2.937619,0.48608 0.69039,0.007 1.380752,0.01409 2.071127,0.02113 1.155346,-0.302926 2.310646,-0.60584 3.465968,-0.90876 0.36633,-0.450866 0.732644,-0.901715 1.098966,-1.352572 -0.007,-0.295882 -0.01409,-0.591751 -0.02113,-0.887626 -0.436777,-0.162031 -0.873537,-0.324054 -1.310305,-0.486081 -0.267702,0.267702 -0.535393,0.535393 -0.80309,0.80309 -0.6763,0.295881 -1.352573,0.591751 -2.028859,0.887626 -0.605853,0.04931 -1.21168,0.09862 -1.81752,0.147938 -0.634032,-0.105672 -1.268037,-0.21134 -1.902056,-0.31701 -0.760837,-0.295881 -1.521644,-0.59175 -2.282467,-0.887626 -0.140896,-0.16203 -0.281786,-0.324054 -0.422679,-0.486081 z"
     transform="matrix(-0.99997027,0,0,1,48.373705,-2.0637444e-4)" /></svg>
